<svg width="808" height="219" viewBox="0 0 808 219" fill="none" xmlns="http://www.w3.org/2000/svg">
<path d="M546.598 161L509.514 115.594V161H489.074V59.092H509.514V104.79L546.598 59.092H571.272L529.224 109.608L572.44 161H546.598ZM659.615 59.092L625.159 125.522V161H604.719V125.522L570.117 59.092H593.185L615.085 105.666L636.839 59.092H659.615ZM659.139 109.9C659.139 99.8747 661.378 90.92 665.855 83.036C670.43 75.0547 676.61 68.874 684.397 64.494C692.281 60.0167 701.09 57.778 710.823 57.778C722.211 57.778 732.188 60.698 740.753 66.538C749.318 72.378 755.304 80.4567 758.711 90.774H735.205C732.869 85.9073 729.56 82.2573 725.277 79.824C721.092 77.3907 716.225 76.174 710.677 76.174C704.74 76.174 699.435 77.5853 694.763 80.408C690.188 83.1333 686.587 87.0267 683.959 92.088C681.428 97.1493 680.163 103.087 680.163 109.9C680.163 116.616 681.428 122.553 683.959 127.712C686.587 132.773 690.188 136.715 694.763 139.538C699.435 142.263 704.74 143.626 710.677 143.626C716.225 143.626 721.092 142.409 725.277 139.976C729.56 137.445 732.869 133.747 735.205 128.88H758.711C755.304 139.295 749.318 147.422 740.753 153.262C732.285 159.005 722.308 161.876 710.823 161.876C701.09 161.876 692.281 159.686 684.397 155.306C676.61 150.829 670.43 144.648 665.855 136.764C661.378 128.88 659.139 119.925 659.139 109.9Z" fill="#131313"/>
<path d="M257.424 59.092V75.59H230.268V161H209.828V75.59H182.672V59.092H257.424ZM285.478 92.672C288.106 88.3893 291.512 85.0313 295.698 82.598C299.98 80.1647 304.847 78.948 310.298 78.948V100.41H304.896C298.472 100.41 293.605 101.919 290.296 104.936C287.084 107.953 285.478 113.209 285.478 120.704V161H265.038V80.116H285.478V92.672ZM393.123 80.116V161H372.537V150.78C369.909 154.284 366.454 157.058 362.171 159.102C357.986 161.049 353.411 162.022 348.447 162.022C342.12 162.022 336.524 160.708 331.657 158.08C326.79 155.355 322.946 151.413 320.123 146.254C317.398 140.998 316.035 134.769 316.035 127.566V80.116H336.475V124.646C336.475 131.07 338.081 136.034 341.293 139.538C344.505 142.945 348.885 144.648 354.433 144.648C360.078 144.648 364.507 142.945 367.719 139.538C370.931 136.034 372.537 131.07 372.537 124.646V80.116H393.123ZM481.18 118.806C481.18 121.726 480.986 124.354 480.596 126.69H421.466C421.953 132.53 423.997 137.105 427.598 140.414C431.2 143.723 435.628 145.378 440.884 145.378C448.476 145.378 453.878 142.117 457.09 135.596H479.136C476.8 143.383 472.323 149.807 465.704 154.868C459.086 159.832 450.958 162.314 441.322 162.314C433.536 162.314 426.528 160.611 420.298 157.204C414.166 153.7 409.348 148.785 405.844 142.458C402.438 136.131 400.734 128.831 400.734 120.558C400.734 112.187 402.438 104.839 405.844 98.512C409.251 92.1853 414.02 87.3187 420.152 83.912C426.284 80.5053 433.341 78.802 441.322 78.802C449.012 78.802 455.874 80.4567 461.908 83.766C468.04 87.0753 472.761 91.796 476.07 97.928C479.477 103.963 481.18 110.922 481.18 118.806ZM460.01 112.966C459.913 107.71 458.015 103.525 454.316 100.41C450.618 97.198 446.092 95.592 440.738 95.592C435.677 95.592 431.394 97.1493 427.89 100.264C424.484 103.281 422.391 107.515 421.612 112.966H460.01Z" fill="#131313"/>
<path d="M116.5 90.833H155.333V168.5H77.6665V129.666H116.5V90.833Z" fill="#453DFF"/>
<path d="M0 52V90.8333H38.8333V129.667H77.6667V90.8333H116.5V52H0Z" fill="#453DFF"/>
</svg>
